<?xml version="1.0" encoding="utf-8"?>
<!-- Generator: Adobe Illustrator 25.2.2, SVG Export Plug-In . SVG Version: 6.00 Build 0)  -->
<svg version="1.1" id="Layer_1" xmlns="http://www.w3.org/2000/svg" xmlns:xlink="http://www.w3.org/1999/xlink" x="0px" y="0px"
	 viewBox="0 0 1080 275" style="enable-background:new 0 0 1080 275;" xml:space="preserve">
<style type="text/css">
	.st0{enable-background:new    ;}
</style>
<g>
	<g class="st0">
		<path class="st1" d="M406.3,62.8c-1.4-2.3-3.2-4.3-5.4-6c-2.1-1.7-4.6-3.1-7.3-4.1c-2.7-1-5.5-1.5-8.5-1.5c-5.4,0-10,1-13.8,3.1
			c-3.8,2.1-6.8,4.9-9.2,8.4c-2.3,3.5-4.1,7.5-5.1,12c-1.1,4.5-1.6,9.1-1.6,13.9c0,4.6,0.5,9,1.6,13.4c1.1,4.3,2.8,8.2,5.1,11.7
			c2.3,3.5,5.4,6.2,9.2,8.3c3.8,2.1,8.4,3.1,13.8,3.1c7.3,0,13.1-2.2,17.2-6.7c4.1-4.5,6.6-10.4,7.6-17.7h23.2
			c-0.6,6.8-2.2,13-4.7,18.5c-2.5,5.5-5.9,10.2-10.1,14.1c-4.2,3.9-9.1,6.8-14.7,8.9c-5.6,2-11.8,3.1-18.5,3.1
			c-8.4,0-15.9-1.5-22.5-4.4c-6.7-2.9-12.3-6.9-16.9-12c-4.6-5.1-8.1-11.1-10.5-18c-2.4-6.9-3.7-14.3-3.7-22.2
			c0-8.2,1.2-15.7,3.7-22.7c2.4-7,6-13.1,10.5-18.3c4.6-5.2,10.2-9.3,16.9-12.2c6.7-3,14.2-4.4,22.5-4.4c6,0,11.7,0.9,17,2.6
			c5.4,1.7,10.1,4.3,14.4,7.6c4.2,3.3,7.7,7.4,10.5,12.3c2.8,4.9,4.5,10.5,5.2,16.8H409C408.6,67.6,407.7,65.1,406.3,62.8z"/>
		<path class="st1" d="M447.7,86.2c1.9-5.1,4.7-9.5,8.3-13.1c3.6-3.6,7.8-6.4,12.8-8.4c5-2,10.6-3,16.8-3c6.2,0,11.8,1,16.9,3
			c5,2,9.3,4.8,12.9,8.4c3.6,3.6,6.3,8,8.3,13.1c1.9,5.1,2.9,10.9,2.9,17.2c0,6.3-1,12-2.9,17.1c-1.9,5.1-4.7,9.5-8.3,13.1
			c-3.6,3.6-7.9,6.4-12.9,8.3s-10.7,2.9-16.9,2.9c-6.2,0-11.8-1-16.8-2.9c-5-1.9-9.3-4.7-12.8-8.3c-3.6-3.6-6.3-8-8.3-13.1
			c-1.9-5.1-2.9-10.8-2.9-17.1C444.8,97.1,445.8,91.3,447.7,86.2z M467.4,112.6c0.6,3,1.7,5.7,3.1,8.1c1.5,2.4,3.4,4.3,5.9,5.7
			c2.4,1.4,5.5,2.1,9.2,2.1s6.7-0.7,9.2-2.1c2.5-1.4,4.5-3.3,6-5.7c1.5-2.4,2.5-5.1,3.1-8.1c0.6-3,0.9-6.1,0.9-9.2
			c0-3.2-0.3-6.3-0.9-9.3c-0.6-3.1-1.7-5.8-3.1-8.1c-1.5-2.3-3.5-4.3-6-5.7c-2.5-1.5-5.6-2.2-9.2-2.2s-6.7,0.7-9.2,2.2
			c-2.4,1.5-4.4,3.4-5.9,5.7c-1.5,2.3-2.5,5-3.1,8.1c-0.6,3.1-0.9,6.2-0.9,9.3C466.5,106.5,466.8,109.6,467.4,112.6z"/>
		<path class="st1" d="M563,33.7v109.1h-21.7V33.7H563z"/>
		<path class="st1" d="M602.4,33.7v109.1h-21.7V33.7H602.4z"/>
		<path class="st1" d="M642.7,123.9c3.3,3.2,7.9,4.7,14.1,4.7c4.4,0,8.2-1.1,11.3-3.3c3.2-2.2,5.1-4.5,5.8-7H693
			c-3.1,9.5-7.7,16.3-14.1,20.3c-6.3,4.1-14,6.1-22.9,6.1c-6.2,0-11.8-1-16.8-3c-5-2-9.2-4.8-12.7-8.5c-3.5-3.7-6.1-8-8-13.1
			c-1.9-5.1-2.8-10.7-2.8-16.8c0-5.9,1-11.4,2.9-16.5c1.9-5.1,4.7-9.5,8.3-13.2c3.6-3.7,7.8-6.6,12.8-8.8c4.9-2.1,10.4-3.2,16.4-3.2
			c6.7,0,12.6,1.3,17.6,3.9c5,2.6,9.1,6.1,12.3,10.5c3.2,4.4,5.5,9.4,7,15c1.4,5.6,1.9,11.5,1.5,17.6h-57
			C637.7,115.6,639.5,120.7,642.7,123.9z M667.3,82.3c-2.6-2.9-6.5-4.3-11.8-4.3c-3.5,0-6.3,0.6-8.6,1.8c-2.3,1.2-4.1,2.6-5.5,4.4
			c-1.4,1.7-2.3,3.6-2.9,5.5c-0.6,1.9-0.9,3.7-1,5.2h35.3C671.7,89.3,669.9,85.1,667.3,82.3z"/>
		<path class="st1" d="M745,78c-3.5,0-6.4,0.8-8.7,2.4c-2.3,1.6-4.3,3.6-5.7,6.1c-1.5,2.5-2.5,5.2-3.1,8.3c-0.6,3-0.9,6-0.9,8.9
			c0,2.9,0.3,5.8,0.9,8.7c0.6,3,1.6,5.6,3,8c1.4,2.4,3.2,4.4,5.6,5.9c2.3,1.5,5.2,2.3,8.6,2.3c5.2,0,9.2-1.5,12-4.4
			c2.8-2.9,4.6-6.8,5.3-11.7h20.9c-1.4,10.5-5.5,18.5-12.2,24c-6.7,5.5-15.3,8.3-25.8,8.3c-5.9,0-11.3-1-16.3-3
			c-4.9-2-9.1-4.8-12.6-8.3c-3.5-3.6-6.2-7.8-8.1-12.8c-1.9-4.9-2.9-10.4-2.9-16.3c0-6.1,0.9-11.8,2.7-17c1.8-5.2,4.4-9.8,7.9-13.6
			c3.5-3.8,7.7-6.8,12.7-8.9c5-2.1,10.7-3.2,17.1-3.2c4.7,0,9.2,0.6,13.5,1.8c4.3,1.2,8.2,3.1,11.6,5.6c3.4,2.5,6.2,5.6,8.3,9.3
			c2.1,3.7,3.4,8.1,3.7,13.2H761C759.6,82.5,754.3,78,745,78z"/>
		<path class="st1" d="M838.4,63.8v14.5h-15.9v39.1c0,3.7,0.6,6.1,1.8,7.3s3.7,1.8,7.3,1.8c1.2,0,2.4,0,3.5-0.2
			c1.1-0.1,2.2-0.3,3.2-0.5v16.8c-1.8,0.3-3.9,0.5-6.1,0.6c-2.2,0.1-4.4,0.2-6.6,0.2c-3.4,0-6.5-0.2-9.6-0.7c-3-0.5-5.7-1.3-7.9-2.7
			c-2.3-1.3-4.1-3.2-5.4-5.7c-1.3-2.4-2-5.7-2-9.6V78.3h-13.1V63.8h13.1V40.1h21.7v23.7H838.4z"/>
		<path class="st1" d="M849.4,51.6V33.7h21.7v17.9H849.4z M871.1,63.8v79h-21.7v-79H871.1z"/>
		<path class="st1" d="M888.7,86.2c1.9-5.1,4.7-9.5,8.3-13.1c3.6-3.6,7.8-6.4,12.8-8.4c5-2,10.6-3,16.8-3c6.2,0,11.8,1,16.9,3
			c5,2,9.3,4.8,12.9,8.4c3.6,3.6,6.3,8,8.3,13.1c1.9,5.1,2.9,10.9,2.9,17.2c0,6.3-1,12-2.9,17.1c-1.9,5.1-4.7,9.5-8.3,13.1
			c-3.6,3.6-7.9,6.4-12.9,8.3s-10.7,2.9-16.9,2.9c-6.2,0-11.8-1-16.8-2.9c-5-1.9-9.3-4.7-12.8-8.3c-3.6-3.6-6.3-8-8.3-13.1
			c-1.9-5.1-2.9-10.8-2.9-17.1C885.8,97.1,886.7,91.3,888.7,86.2z M908.4,112.6c0.6,3,1.7,5.7,3.1,8.1c1.5,2.4,3.4,4.3,5.9,5.7
			c2.4,1.4,5.5,2.1,9.2,2.1s6.8-0.7,9.2-2.1c2.5-1.4,4.5-3.3,6-5.7c1.5-2.4,2.5-5.1,3.1-8.1c0.6-3,0.9-6.1,0.9-9.2
			c0-3.2-0.3-6.3-0.9-9.3c-0.6-3.1-1.7-5.8-3.1-8.1c-1.5-2.3-3.5-4.3-6-5.7c-2.5-1.5-5.6-2.2-9.2-2.2s-6.7,0.7-9.2,2.2
			c-2.4,1.5-4.4,3.4-5.9,5.7c-1.5,2.3-2.5,5-3.1,8.1c-0.6,3.1-0.9,6.2-0.9,9.3C907.5,106.5,907.8,109.6,908.4,112.6z"/>
		<path class="st1" d="M1002.3,63.8v11h0.5c2.8-4.6,6.3-7.9,10.7-10c4.4-2.1,8.9-3.1,13.5-3.1c5.8,0,10.6,0.8,14.3,2.4
			c3.7,1.6,6.6,3.8,8.8,6.6c2.1,2.8,3.6,6.2,4.5,10.2c0.9,4,1.3,8.5,1.3,13.4v48.6H1034V98.2c0-6.5-1-11.4-3.1-14.6
			c-2-3.2-5.7-4.8-10.9-4.8c-5.9,0-10.2,1.8-12.8,5.3c-2.7,3.5-4,9.3-4,17.3v41.4h-21.7v-79H1002.3z"/>
	</g>
	<g class="st0">
		<path class="st1" d="M339,238.3l-3.9-6.1l40.8-23.7l-40.7-24.2l3.9-6.4l48.3,29.5v3L339,238.3z"/>
	</g>
	<g class="st0">
		<path class="st1" d="M476.1,198.3c-1.6-0.5-3.3-1-5.1-1.4c-1.8-0.4-3.6-0.6-5.4-0.6c-6.7,0-11.7,1.6-15,4.7s-4.9,8.2-4.9,15
			c0,3,0.5,5.7,1.4,8.1c1,2.4,2.3,4.4,4.1,6c1.8,1.6,3.9,2.9,6.4,3.8c2.5,0.9,5.2,1.3,8.3,1.3c3.2,0,6.3-0.6,9.4-1.7
			c3-1.1,5.6-2.6,7.6-4.4l3.6,6c-1,0.8-2.2,1.7-3.6,2.6c-1.4,0.9-3.1,1.7-5,2.5c-1.9,0.8-4,1.4-6.3,1.9c-2.3,0.5-4.8,0.7-7.4,0.7
			c-4.4,0-8.4-0.6-11.8-1.9c-3.4-1.3-6.2-3.1-8.5-5.4s-4-5.2-5.1-8.5c-1.2-3.3-1.7-7-1.7-11c0-4.3,0.6-8.1,1.8-11.5
			c1.2-3.4,2.9-6.2,5.2-8.4s5-4,8.2-5.2c3.2-1.2,6.8-1.8,10.8-1.8c5.1,0,9.2,0.4,12.4,1.3c3.2,0.9,5.9,1.9,8.1,3l-0.1,0.3v14.3h-7.4
			V198.3z"/>
		<path class="st1" d="M498.5,216.1c0-8.3,2.2-14.8,6.5-19.7c4.3-4.8,10.5-7.2,18.5-7.2c4.3,0,8,0.7,11.1,2.1
			c3.1,1.4,5.7,3.3,7.7,5.7c2.1,2.4,3.6,5.2,4.6,8.5c1,3.3,1.5,6.8,1.5,10.6c0,4.1-0.5,7.8-1.6,11.1c-1.1,3.3-2.7,6.1-4.8,8.5
			c-2.1,2.3-4.7,4.1-7.9,5.4c-3.1,1.3-6.7,1.9-10.6,1.9c-4.2,0-7.9-0.7-11.1-2.1c-3.1-1.4-5.7-3.3-7.8-5.7c-2.1-2.4-3.6-5.2-4.6-8.5
			C499,223.4,498.5,219.9,498.5,216.1z M507,216.1c0,2.4,0.3,4.8,0.9,7.2c0.6,2.4,1.5,4.6,2.8,6.5c1.3,1.9,3,3.5,5.1,4.6
			c2.1,1.2,4.6,1.7,7.6,1.7c5.5,0,9.6-1.7,12.3-5.1c2.8-3.4,4.1-8.4,4.1-14.9c0-2.5-0.3-4.9-0.9-7.2c-0.6-2.4-1.5-4.5-2.9-6.4
			c-1.3-1.9-3-3.5-5.1-4.6c-2.1-1.2-4.6-1.7-7.6-1.7c-5.5,0-9.5,1.7-12.3,5C508.4,204.5,507,209.5,507,216.1z"/>
		<path class="st1" d="M563.3,241.8v-6.9h12.2v-37.6h-12.2v-6.9h12.2v-2.9c0-6.4,1.7-11.1,5-14c3.4-2.9,8.1-4.3,14.4-4.3
			c2.3,0,4.3,0.1,6.1,0.4c1.8,0.3,3.7,0.8,5.7,1.6l-1.8,6.7c-1.8-0.8-3.5-1.2-5.1-1.5c-1.6-0.2-3.1-0.4-4.5-0.4
			c-4.5,0-7.6,1.1-9.2,3.3c-1.6,2.2-2.5,5.9-2.5,10.9h21.2v6.9h-21.2v37.6h21.2v6.9H563.3z"/>
		<path class="st1" d="M624.8,241.8v-6.9h12.2v-37.6h-12.2v-6.9h12.2v-2.9c0-6.4,1.7-11.1,5-14c3.4-2.9,8.1-4.3,14.4-4.3
			c2.3,0,4.3,0.1,6.1,0.4c1.8,0.3,3.7,0.8,5.7,1.6l-1.8,6.7c-1.8-0.8-3.5-1.2-5.1-1.5c-1.6-0.2-3.1-0.4-4.5-0.4
			c-4.5,0-7.6,1.1-9.2,3.3c-1.6,2.2-2.5,5.9-2.5,10.9h21.2v6.9h-21.2v37.6h21.2v6.9H624.8z"/>
		<path class="st1" d="M731.7,235.3c-1.2,1.1-2.7,2.1-4.4,3.1c-1.7,1-3.5,1.8-5.5,2.5c-2,0.7-4.1,1.2-6.2,1.6
			c-2.2,0.4-4.3,0.6-6.5,0.6c-4.1,0-7.7-0.6-10.9-1.9c-3.1-1.3-5.8-3.1-7.9-5.4c-2.1-2.4-3.7-5.2-4.8-8.5c-1.1-3.3-1.6-7-1.6-11.1
			c0-4.3,0.6-8.1,1.8-11.5c1.2-3.4,2.9-6.2,5.2-8.4s5-4,8.2-5.2c3.2-1.2,6.8-1.8,10.8-1.8c2.9,0,5.7,0.4,8.5,1.1
			c2.8,0.8,5.3,2.2,7.4,4.3c2.2,2.1,3.8,5,5,8.6c1.2,3.7,1.6,8.4,1.2,14.2h-39.6c0,6.2,1.7,10.8,5,13.8c3.3,3,7.7,4.6,13.3,4.6
			c1.8,0,3.7-0.2,5.5-0.7c1.8-0.4,3.5-1,5.2-1.6c1.6-0.6,3.1-1.3,4.4-2.1c1.3-0.8,2.2-1.4,2.9-2.1L731.7,235.3z M710.1,196
			c-2.3,0-4.4,0.2-6.4,0.7c-2,0.5-3.8,1.3-5.3,2.4c-1.5,1.1-2.8,2.6-3.8,4.4c-1,1.8-1.6,4.1-1.9,6.7h31.8c-0.3-4.5-1.8-8-4.3-10.5
			C717.6,197.2,714.2,196,710.1,196z"/>
		<path class="st1" d="M793.3,235.3c-1.2,1.1-2.7,2.1-4.4,3.1c-1.7,1-3.5,1.8-5.5,2.5c-2,0.7-4.1,1.2-6.2,1.6
			c-2.2,0.4-4.3,0.6-6.5,0.6c-4.1,0-7.7-0.6-10.9-1.9c-3.1-1.3-5.8-3.1-7.9-5.4c-2.1-2.4-3.7-5.2-4.8-8.5c-1.1-3.3-1.6-7-1.6-11.1
			c0-4.3,0.6-8.1,1.8-11.5c1.2-3.4,2.9-6.2,5.2-8.4s5-4,8.2-5.2c3.2-1.2,6.8-1.8,10.8-1.8c2.9,0,5.7,0.4,8.5,1.1
			c2.8,0.8,5.3,2.2,7.4,4.3c2.2,2.1,3.8,5,5,8.6c1.2,3.7,1.6,8.4,1.2,14.2H754c0,6.2,1.7,10.8,5,13.8c3.3,3,7.7,4.6,13.3,4.6
			c1.8,0,3.7-0.2,5.5-0.7c1.8-0.4,3.5-1,5.2-1.6c1.6-0.6,3.1-1.3,4.4-2.1c1.3-0.8,2.2-1.4,2.9-2.1L793.3,235.3z M771.7,196
			c-2.3,0-4.4,0.2-6.4,0.7c-2,0.5-3.8,1.3-5.3,2.4c-1.5,1.1-2.8,2.6-3.8,4.4c-1,1.8-1.6,4.1-1.9,6.7h31.8c-0.3-4.5-1.8-8-4.3-10.5
			C779.2,197.2,775.8,196,771.7,196z"/>
	</g>
	<g class="st0">
		<path class="st1" d="M835.8,237.9h55.2v7.2h-55.2V237.9z"/>
	</g>
</g>
<g>
	<path class="st1" d="M223.6,167.6c-12.8,33.2-45,56.9-82.6,56.9c-48.9,0-88.6-39.7-88.6-88.6S92.1,47.3,141,47.3
		c37.7,0,69.8,23.7,82.6,56.9h38.1C247.6,50.6,198.9,10.9,141,10.9c-68.9,0-125,56.1-125,125s56.1,125,125,125
		c57.9,0,106.7-39.7,120.7-93.3L223.6,167.6L223.6,167.6z"/>
	<g>
		<path class="st1" d="M140.6,206.4c-21.2,0-41-9.4-54.5-25.7s-18.8-37.8-14.7-59c5.5-28.3,28.4-50.6,57-55.4
			c36.5-6.2,71.2,16.3,80.4,51.4h42.4c10,0,18.1,8.1,18.1,18.1s-8.1,18.1-18.1,18.1h-42.4C200.7,184.6,172.6,206.4,140.6,206.4z
			 M140.4,74.4c-3.5,0-7,0.3-10.5,0.9c-24.8,4.2-44.8,23.5-49.5,48.2c-3.6,18.5,1.1,37.2,12.8,51.5c11.7,14.2,29,22.4,47.5,22.4
			c28.9,0,54.3-20.5,60.2-48.9l0.8-3.6h49.7c5,0,9-4,9-9s-4-9-9-9h-49.7l-0.8-3.6C194.7,94.3,169.3,74.4,140.4,74.4z"/>
	</g>
	<g>
		<path class="st1" d="M98,140.4c-2.5,0-4.5-2-4.5-4.5c0-26.2,21.3-47.5,47.5-47.5c2.5,0,4.5,2,4.5,4.5s-2,4.5-4.5,4.5
			c-21.2,0-38.5,17.2-38.5,38.5C102.5,138.4,100.5,140.4,98,140.4z"/>
	</g>
</g>
</svg>
